<svg xmlns="http://www.w3.org/2000/svg" viewBox="0 0 540.87 126.97"><defs><style>.cls-1{fill:#fff;}</style></defs><g id="Layer_2" data-name="Layer 2"><g id="Layer_1-2" data-name="Layer 1"><path class="cls-1" d="M184.38,31.67h9.78l7.92,15.11,7.76-15.11h9.93V65.92h-7.05V41.7h-.09L205,57.28h-5.8l-7.58-15.34h-.1v24h-7.14Z"/><path class="cls-1" d="M252.66,52.25v7.29H272v6.33H245.37V31.53h25v6.33h-17.7v7.72H268.3v6.67Z"/><path class="cls-1" d="M316,53.25,325.6,66h-9.2l-8.64-12.32h-3.69V66h-7.58V31.67h15.45c8.63,0,11.94,5.42,11.94,11,0,4.65-2.45,9.35-8.16,10.59ZM304.07,37.52V47.83h5.85c3.6,0,6.57-.81,6.57-5.17s-3-5.14-6.57-5.14Z"/><path class="cls-1" d="M365.83,66a17.36,17.36,0,1,1,15.06-25.85c-2.92,1.54-3.16,1.68-6.42,3.26a10,10,0,0,0-8.64-4.94,10.17,10.17,0,0,0,0,20.34,10,10,0,0,0,8.93-5.33c3.26,1.68,3.35,1.87,6.42,3.26A17.21,17.21,0,0,1,365.83,66Z"/><path class="cls-1" d="M434.07,53c0,9.25-5.46,13.76-14.62,13.76S404.87,62.32,404.87,53V31.67h7.53V53c0,3.74,1,7.43,7.05,7.43,5.37,0,7.09-2.3,7.09-7.43V31.67h7.53Z"/><path class="cls-1" d="M479.24,53.25,488.84,66h-9.21L471,53.64h-3.7V66h-7.57V31.67h15.44c8.63,0,11.94,5.42,11.94,11,0,4.65-2.45,9.35-8.15,10.59ZM467.3,37.52V47.83h5.85c3.6,0,6.57-.81,6.57-5.17s-3-5.14-6.57-5.14Z"/><path class="cls-1" d="M520.63,52.58,508,31.67h8.49l8,13.53,8-13.53h8.4l-12.71,21.1V65.92h-7.53Z"/><path class="cls-1" d="M184.35,79.26h6.11a8.93,8.93,0,0,1,4.26,1A7.35,7.35,0,0,1,197.63,83a8.2,8.2,0,0,1,0,8,7.28,7.28,0,0,1-2.91,2.75,8.93,8.93,0,0,1-4.26,1h-6.11Zm6,14.43a8,8,0,0,0,3.77-.85,6.14,6.14,0,0,0,2.52-2.37,7.34,7.34,0,0,0,0-7,6,6,0,0,0-2.52-2.37,8,8,0,0,0-3.77-.85h-4.9V93.69Z"/><path class="cls-1" d="M202.57,79.26h1.12V94.7h-1.12Z"/><path class="cls-1" d="M220.1,87.05h1.08v5.78a6.61,6.61,0,0,1-2.46,1.48,9.33,9.33,0,0,1-3.05.5,8.41,8.41,0,0,1-4.14-1,7.55,7.55,0,0,1-2.89-2.8,8.27,8.27,0,0,1,0-8,7.48,7.48,0,0,1,2.89-2.8,8.46,8.46,0,0,1,4.16-1,8.74,8.74,0,0,1,3.12.54,6.73,6.73,0,0,1,2.44,1.58l-.71.75a5.78,5.78,0,0,0-2.17-1.4,7.77,7.77,0,0,0-2.66-.43,7.28,7.28,0,0,0-3.58.88,6.38,6.38,0,0,0-2.5,2.44,7,7,0,0,0,0,6.92,6.54,6.54,0,0,0,2.5,2.45,7.12,7.12,0,0,0,3.57.9,6.74,6.74,0,0,0,4.39-1.41Z"/><path class="cls-1" d="M226.12,79.26h1.13V94.7h-1.13Z"/><path class="cls-1" d="M235.59,80.28H230v-1h12.24v1h-5.56V94.7h-1.12Z"/><path class="cls-1" d="M253.83,90.36h-9l-2,4.34H241.7l7.1-15.44h1.13L257,94.7h-1.21Zm-.42-1-4.06-8.91-4,8.91Z"/><path class="cls-1" d="M259.83,79.26H261V93.69h8.89v1h-10Z"/><path class="cls-1" d="M127,63.49A63.43,63.43,0,1,1,87.82,4.83V58.28h38.94C126.89,60,127,61.74,127,63.49Z"/><path class="cls-1" d="M141.3,4.8V58.28H126.76A63.56,63.56,0,0,0,87.82,4.83v0Z"/><rect class="cls-1" x="141.3" y="58.28" width="14.32" height="14.32" transform="translate(296.92 130.89) rotate(180)"/></g></g></svg>